# xmcd
#
# Track frame offsets:
# 150
# 18241
# 36266
# 53612
# 73368
# 88105
# 105039
# 123905
# 139719
# 154678
# 174295
# 190916
# 210958
# 224438
#
# Disc length: 3179 seconds
#
#
# Revision: 0
# Processed by: cddbd v1.5.2PL0 Copyright (c) Steve Scherf et al.
# Submitted via: FreeRIP 2.95 
#
DISCID=b60c690e
DTITLE=Leandro and Leonardo - Seleção de Sucessos-Leandro and Leonardo de 1996 a 1998
DYEAR=2005
DGENRE=Sertanejo
TTITLE0=Horizonte Azul
TTITLE1=Rumo à Goiânia
TTITLE2=Doce Mistério
TTITLE3=Eu Sou Desejo, Você é Paixão(Right Here Waiting)
TTITLE4=Touro de Rodeio
TTITLE5=Por Causa Dela
TTITLE6=Essas Mulheres(Esas Mujeres)
TTITLE7=Cerveja
TTITLE8=Anarriê
TTITLE9=Pedindo Amor
TTITLE10=Loucuras de Amor
TTITLE11=O Lutador(The Boxer)
TTITLE12=Festa dos Insetos
TTITLE13=Pout-Pourri
EXTD=by Magno
EXTT0=
EXTT1=
EXTT2=
EXTT3=
EXTT4=
EXTT5=
EXTT6=
EXTT7=
EXTT8=
EXTT9=
EXTT10=
EXTT11=
EXTT12=
EXTT13=
PLAYORDER=
